<svg width="25" height="25" xmlns="http://www.w3.org/2000/svg"><path d="M12.5 0C5.634 0 0 5.634 0 12.5 0 18.359 4.111 23.68 9.57 25v-4.136a3.053 3.053 0 01-1.589-.04c-.739-.218-1.339-.71-1.785-1.46-.284-.48-.787-1-1.312-.96l-.129-1.46c1.136-.097 2.118.692 2.701 1.671.26.436.557.691.94.804.37.11.767.057 1.23-.107.116-.926.54-1.273.86-1.761-3.255-.486-4.553-2.214-5.068-3.577-.682-1.81-.316-4.072.89-5.501.024-.028.067-.1.05-.152-.553-1.671.121-3.054.146-3.2.639.188.742-.19 2.774 1.044l.35.21c.148.088.102.039.249.027a10.65 10.65 0 012.623-.369 10.66 10.66 0 012.66.379l.113.011c-.01-.001.03-.007.1-.048C17.91 4.838 17.818 5.34 18.5 5.12c.024.147.69 1.552.142 3.202-.074.228 2.2 2.31.94 5.652-.515 1.364-1.813 3.092-5.068 3.577v.001c.417.636.918.974.916 2.287V25C20.89 23.68 25 18.359 25 12.5 25 5.634 19.366 0 12.5 0z" fill="#5E5E5E"/></svg>