<svg width="50" height="50" xmlns="http://www.w3.org/2000/svg"><defs><linearGradient x1="0%" y1="47.089%" x2="101.406%" y2="47.089%" id="a"><stop stop-color="#8060E8" offset="0%"/><stop stop-color="#8060E8" offset="100%"/></linearGradient></defs><g fill="none" fill-rule="evenodd"><circle fill="url(#a)" cx="25" cy="25" r="25"/><path d="M31.947 31.423l-1.288-2.18a6.555 6.555 0 01-.909-3.333V24c0-2.411-1.584-4.451-3.75-5.109v-1.367c0-.84-.673-1.524-1.5-1.524-.828 0-1.5.683-1.5 1.524v1.367c-2.166.658-3.75 2.698-3.75 5.109v1.91a6.559 6.559 0 01-.909 3.332l-1.288 2.18a.386.386 0 00-.004.384c.067.12.19.194.325.194h14.251c.135 0 .26-.074.326-.193a.388.388 0 00-.004-.384zM22 32c.448 1.178 1.396 2 2.5 2s2.052-.822 2.5-2h-5z" fill="#FFF" fill-rule="nonzero"/></g></svg>