<svg width="56" height="56" xmlns="http://www.w3.org/2000/svg"><defs><linearGradient x1="20.166%" y1="85.777%" x2="100%" y2="21.38%" id="a"><stop stop-color="#4190F8" offset="0%"/><stop stop-color="#5241F8" offset="100%"/></linearGradient></defs><g fill="none" fill-rule="evenodd"><circle fill="url(#a)" cx="28" cy="28" r="28"/><path d="M25 17c-5.523 0-10 4.477-10 10 0 1.56.368 3.03 1.005 4.347L15 37l5.653-1.005A9.942 9.942 0 0025 37c5.523 0 10-4.477 10-10s-4.477-10-10-10z" fill="#FFF" fill-rule="nonzero"/><path d="M33 23a8 8 0 018 8 7.954 7.954 0 01-.804 3.477L41 39l-4.523-.804A7.954 7.954 0 0133 39a8 8 0 010-16z" fill="#FFF" fill-rule="nonzero" opacity=".448"/></g></svg>