<svg width="50" height="50" xmlns="http://www.w3.org/2000/svg"><defs><linearGradient x1="0%" y1="47.089%" x2="101.406%" y2="47.089%" id="a"><stop stop-color="#4BC2EE" offset="0%"/><stop stop-color="#4BC2EE" offset="100%"/></linearGradient></defs><g fill="none" fill-rule="evenodd"><circle fill="url(#a)" cx="25" cy="25" r="25"/><path d="M33.579 17.378l-7.91-2.353a.595.595 0 00-.339 0l-7.909 2.353a.587.587 0 00-.421.561v8.63c0 1.122.458 2.271 1.362 3.415.69.873 1.644 1.75 2.837 2.607a25.51 25.51 0 004.06 2.358.594.594 0 00.482 0c.083-.037 2.056-.92 4.06-2.358 1.193-.856 2.147-1.734 2.837-2.607C33.542 28.84 34 27.691 34 26.569v-8.63a.586.586 0 00-.421-.56z" fill="#FFF" fill-rule="nonzero"/></g></svg>