<svg width="50" height="50" xmlns="http://www.w3.org/2000/svg"><defs><linearGradient x1="0%" y1="47.089%" x2="101.406%" y2="47.089%" id="a"><stop stop-color="#F1B428" offset="0%"/><stop stop-color="#FAA11E" offset="100%"/></linearGradient></defs><g fill="none" fill-rule="evenodd"><circle fill="url(#a)" cx="25" cy="25" r="25"/><path d="M31.727 29.151l-2.968-.613a.695.695 0 01-.545-.686v-.703c.196-.28.379-.654.569-1.044.145-.296.364-.74.461-.846.576-.58 1.19-1.302 1.377-2.241.17-.851 0-1.294-.197-1.644 0-.684 0-1.937-.231-2.84-.023-1.091-.217-1.707-.704-2.256-.345-.383-.853-.473-1.26-.544-.161-.028-.383-.068-.46-.111-.704-.402-1.42-.6-2.295-.623-1.791.07-3.99 1.242-4.725 3.349-.224.64-.203 1.69-.186 2.534l-.02.491c-.172.35-.341.793-.17 1.642.187.944.8 1.664 1.373 2.242.1.106.32.554.467.85.193.389.377.763.573 1.043v.701c0 .333-.23.622-.546.686l-2.968.613C17.376 29.541 16 31.274 16 33.27v1.33c0 .771.61 1.4 1.357 1.4h16.286C34.39 36 35 35.371 35 34.6v-1.331c0-1.995-1.376-3.727-3.273-4.118z" fill="#FFF" fill-rule="nonzero"/></g></svg>