<svg width="50" height="50" xmlns="http://www.w3.org/2000/svg"><defs><linearGradient x1="0%" y1="47.089%" x2="101.406%" y2="47.089%" id="a"><stop stop-color="#0DDC57" offset="0%"/><stop stop-color="#23D45A" offset="100%"/></linearGradient></defs><g fill="none" fill-rule="evenodd"><circle fill="url(#a)" cx="25" cy="25" r="25"/><path d="M32.116 21.398l-4.549-.568c.382-.909.825-2.35.825-4.152 0-1.01-.325-1.755-.968-2.214-.432-.308-.987-.464-1.65-.464h-.033l-.033.004c-1.089.12-1.417 1.133-1.373 1.793.006.17-.012.337-.054.495-.121.468-.322.857-.807 1.799l-.023.044c-.324.63-.697.856-1.212 1.17-.44.266-.937.568-1.474 1.153-.243.264-.523.65-.772 1.063a.953.953 0 00-.115.203l-.012.022a11.3 11.3 0 00-.125.231c-.467.403-1.188.396-1.626.39h-.124c-.768 0-1.222.3-1.468.551-.342.35-.523.844-.523 1.43v6.375c0 .42.054 1.026.518 1.444.434.39 1.049.436 1.473.436h1.402c.344 0 .675.147 1.096.333.237.105.506.224.814.332 1.445.498 3.368.73 6.052.73l2.134.002c.582 0 1.13-.227 1.583-.657a1.49 1.49 0 00.447-.874c.013-.08.022-.248.023-.339a1.688 1.688 0 00-.097-.646 2.154 2.154 0 001.242-.572 2.09 2.09 0 00.64-1.534c0-.438-.14-.851-.398-1.19.152-.076.297-.172.426-.297.334-.323.506-.771.513-1.332a1.817 1.817 0 00-.542-1.405c.39-.386.645-.94.672-1.554.05-1.157-.792-2.14-1.882-2.202z" fill="#FFF" fill-rule="nonzero"/></g></svg>