<svg width="50" height="50" xmlns="http://www.w3.org/2000/svg"><defs><linearGradient x1="0%" y1="47.089%" x2="101.406%" y2="47.089%" id="a"><stop stop-color="#94DA56" offset="0%"/><stop stop-color="#94DA56" offset="100%"/></linearGradient></defs><g fill="none" fill-rule="evenodd"><circle fill="url(#a)" cx="25" cy="25" r="25"/><path d="M25 16c-4.962 0-9 4.038-9 9v8.438c0 .31.252.562.563.562H25c4.962 0 9-4.038 9-9s-4.038-9-9-9zm.563 11.25h-4.5a.563.563 0 010-1.125h4.5a.563.563 0 010 1.125zm3.375-3.375h-7.875a.563.563 0 010-1.125h7.875a.563.563 0 010 1.125z" fill="#FFF" fill-rule="nonzero"/></g></svg>