<svg width="50" height="50" xmlns="http://www.w3.org/2000/svg"><defs><linearGradient x1="0%" y1="47.089%" x2="101.406%" y2="47.089%" id="a"><stop stop-color="#EE4B75" offset="0%"/><stop stop-color="#EE4B75" offset="100%"/></linearGradient></defs><g fill="none" fill-rule="evenodd"><circle fill="url(#a)" cx="25" cy="25" r="25"/><path d="M25.393 36h-1.786C22.721 36 22 35.344 22 34.538V24.463c0-.807.72-1.463 1.607-1.463h1.786c.886 0 1.607.656 1.607 1.462v10.076c0 .806-.721 1.462-1.607 1.462zm-6 0h-1.786C16.721 36 16 35.327 16 34.5v-7c0-.827.72-1.5 1.607-1.5h1.786c.886 0 1.607.673 1.607 1.5v7c0 .827-.721 1.5-1.607 1.5zm12.376 0h-1.538c-.763 0-1.384-.662-1.384-1.477V20.906H28c-.395 0-.743-.238-.908-.62a1.112 1.112 0 01.158-1.151l3.29-3.917A.599.599 0 0131 15c.175 0 .341.08.458.218l3.29 3.917a1.112 1.112 0 01.158 1.15c-.164.383-.512.621-.907.621h-.846v13.617c0 .815-.62 1.477-1.384 1.477z" fill="#FFF" fill-rule="nonzero"/></g></svg>