<svg width="40" height="40" xmlns="http://www.w3.org/2000/svg"><defs><linearGradient x1="77.198%" y1="8.968%" x2="17.194%" y2="100%" id="a"><stop stop-color="#FF567C" offset="0%"/><stop stop-color="#754EFF" offset="51.803%"/><stop stop-color="#5564FF" offset="63.184%"/><stop stop-color="#1C89FF" offset="100%"/></linearGradient></defs><g fill="none"><path d="M20 .004C9.191-.21.247 8.362 0 19.169a18.802 18.802 0 006.667 14.265v5.733a.833.833 0 001.275.706l4.645-2.901A20.638 20.638 0 0020 38.334c10.809.213 19.753-8.358 20-19.165C39.753 8.362 30.809-.21 20 .004z" fill="url(#a)"/><path d="M33.83 13.316a.884.884 0 00-1.08-.22l-8.775 4.455-5.459-4.36a.89.89 0 00-1.146.042L7.245 22.66a.748.748 0 00.004 1.112.89.89 0 00.997.133l8.775-4.455 5.464 4.36a.89.89 0 001.146-.04l10.125-9.428a.746.746 0 00.074-1.026z" fill="#FAFAFA"/></g></svg>