<svg width="50" height="50" xmlns="http://www.w3.org/2000/svg"><defs><linearGradient x1="0%" y1="47.089%" x2="101.406%" y2="47.089%" id="a"><stop stop-color="#4BC2EE" offset="0%"/><stop stop-color="#4BC2EE" offset="100%"/></linearGradient></defs><g fill="none" fill-rule="evenodd"><circle fill="url(#a)" cx="25" cy="25" r="25"/><path d="M31.072 18c-2.787 0-4.987 2.257-4.987 5.04s2.289 5.04 5.075 5.04c.028 0 .07-.004.098-.004a6.397 6.397 0 01-4 1.404c-.697 0-1.258.564-1.258 1.26 0 .696.448 1.26 1.145 1.26C32.092 32 36 27.98 36 23.04c0-2.785-2.142-5.04-4.928-5.04zm-12 0c-2.783 0-4.984 2.257-4.984 5.04s2.284 5.04 5.067 5.04c.028 0 .069-.004.097-.004a6.384 6.384 0 01-3.996 1.404c-.695 0-1.256.564-1.256 1.26 0 .696.455 1.26 1.15 1.26 4.94 0 8.85-4.02 8.85-8.96 0-2.785-2.146-5.04-4.928-5.04z" fill="#FFF" fill-rule="nonzero"/></g></svg>