<svg width="25" height="25" xmlns="http://www.w3.org/2000/svg"><path d="M12.5 0C5.597 0 0 5.597 0 12.5S5.597 25 12.5 25 25 19.403 25 12.5 19.403 0 12.5 0zm6.067 9.74c.006.12.008.239.008.359 0 3.67-2.889 7.9-8.172 7.901A8.335 8.335 0 016 16.753c.225.025.454.038.685.038a5.89 5.89 0 003.568-1.189c-1.258-.022-2.318-.825-2.684-1.928a2.953 2.953 0 001.298-.048c-1.315-.255-2.305-1.377-2.305-2.722v-.036c.388.208.83.334 1.302.348a2.751 2.751 0 01-1.279-2.312 2.7 2.7 0 01.39-1.396 8.251 8.251 0 005.92 2.902 2.687 2.687 0 01-.075-.633C12.82 8.244 14.107 7 15.693 7a2.92 2.92 0 012.097.877 5.882 5.882 0 001.824-.674A2.807 2.807 0 0118.35 8.74 5.882 5.882 0 0020 8.302a5.733 5.733 0 01-1.433 1.438z" fill="#5BAEF6"/></svg>