<svg width="20" height="13" xmlns="http://www.w3.org/2000/svg"><g fill="none"><path d="M19.655 13H.345A.344.344 0 010 12.658V.342C0 .153.154 0 .345 0h19.31c.19 0 .345.153.345.342v12.316a.344.344 0 01-.345.342z" fill="#F5F5F5"/><path d="M19.961 1.01H0V.351c0-.187.154-.34.344-.34h19.273c.19 0 .344.153.344.341v.657zM0 4.004h19.961v1H0zm0-1.997h19.961v1H0zM19.961 7H.344A.343.343 0 010 6.657V6h19.961v.998zM0 9.995h19.961v1H0zm19.617 2.995H.344A.343.343 0 010 12.647v-.657h19.961v.657a.343.343 0 01-.344.341zM0 7.998h19.961v1H0z" fill="#FF4B55"/><path d="M9.63 0H.37C.166 0 0 .153 0 .342v6.316C0 6.847.166 7 .37 7h9.26c.204 0 .37-.153.37-.342V.342C10 .153 9.834 0 9.63 0z" fill="#41479B"/><path d="M1.41 1.065l.073.245.234.002c.03 0 .043.043.019.063l-.189.154.071.247c.01.032-.024.059-.048.04l-.19-.151-.191.15c-.025.02-.058-.007-.049-.038l.07-.248-.188-.154c-.024-.02-.011-.062.019-.063l.234-.002.074-.245c.01-.032.05-.032.06 0zm0 1.285l.073.247.234.002c.03 0 .043.043.019.063l-.189.154.071.247c.01.032-.024.058-.048.039l-.19-.151-.191.15c-.025.02-.058-.006-.049-.038l.07-.247-.188-.154c-.024-.02-.011-.063.019-.063l.234-.002.074-.246c.01-.032.05-.032.06 0zm0 1.287l.073.246.234.002c.03 0 .043.043.019.063l-.189.154.071.247c.01.032-.024.058-.048.039l-.19-.15-.191.15c-.025.02-.058-.007-.049-.04l.07-.246-.188-.154c-.024-.02-.011-.063.019-.063l.234-.002.074-.246c.01-.032.05-.032.06 0zm0 1.286l.073.246.234.002c.03 0 .043.043.019.063l-.189.154.071.247c.01.032-.024.059-.048.039l-.19-.15-.191.15c-.025.02-.058-.007-.049-.039l.07-.247-.188-.154c-.024-.02-.011-.063.019-.063l.234-.002.074-.246c.01-.032.05-.032.06 0zm0 1.287l.073.245.234.002c.03 0 .043.043.019.063l-.189.154.071.247c.01.032-.024.059-.048.04l-.19-.151-.191.15c-.025.02-.058-.007-.049-.039l.07-.247-.188-.154c-.024-.02-.011-.063.019-.063l.234-.002.074-.246c.01-.032.05-.032.06 0zm.901-4.515l.074.246.234.002c.03 0 .043.043.019.063l-.188.154.07.247c.01.032-.024.059-.048.039l-.19-.15-.191.15c-.025.02-.058-.007-.049-.039l.07-.247-.187-.154c-.025-.02-.012-.063.018-.063l.234-.002.074-.246c.01-.032.05-.032.06 0zm0 1.286l.074.246.234.002c.03 0 .043.043.019.063l-.188.154.07.247c.01.032-.024.059-.048.04l-.19-.151-.191.15c-.025.02-.058-.007-.049-.039l.07-.247-.187-.154c-.025-.02-.012-.063.018-.063l.234-.002.074-.246c.01-.032.05-.032.06 0zm0 1.287l.074.245.234.002c.03 0 .043.043.019.063l-.188.154.07.247c.01.032-.024.059-.048.04l-.19-.151-.191.15c-.025.02-.058-.007-.049-.039l.07-.247-.187-.154c-.025-.02-.012-.062.018-.063l.234-.002.074-.245c.01-.032.05-.032.06 0zm0 1.286l.074.246.234.002c.03 0 .043.043.019.063l-.188.154.07.247c.01.032-.024.058-.048.039l-.19-.151-.191.15c-.025.02-.058-.006-.049-.038l.07-.247-.187-.154c-.025-.02-.012-.063.018-.063l.234-.002.074-.246c.01-.032.05-.032.06 0zm.902-4.489l.074.245.235.002c.03 0 .042.043.018.063l-.188.154.07.247c.01.032-.023.059-.048.04l-.19-.151-.191.15c-.025.02-.058-.007-.049-.039l.071-.247-.188-.154c-.025-.02-.012-.062.018-.063l.234-.002.074-.245c.01-.032.05-.032.06 0zm0 1.285l.074.247.235.002c.03 0 .042.043.018.063l-.188.154.07.247c.01.032-.023.058-.048.039l-.19-.151-.191.15c-.025.02-.058-.006-.049-.038l.071-.247-.188-.154c-.025-.02-.012-.063.018-.063l.234-.002.074-.246c.01-.032.05-.032.06 0zm0 1.287l.074.246.235.002c.03 0 .042.043.018.063l-.188.154.07.247c.01.032-.023.058-.048.039l-.19-.15-.191.15c-.025.02-.058-.007-.049-.04l.071-.246-.188-.154c-.025-.02-.012-.063.018-.063l.234-.002.074-.246c.01-.032.05-.032.06 0zm0 1.286l.074.246.235.002c.03 0 .042.043.018.063l-.188.154.07.247c.01.032-.023.059-.048.039l-.19-.15-.191.15c-.025.02-.058-.007-.049-.039l.071-.247-.188-.154c-.025-.02-.012-.063.018-.063l.234-.002.074-.246c.01-.032.05-.032.06 0zm0 1.287l.074.245.235.002c.03 0 .042.043.018.063l-.188.154.07.247c.01.032-.023.059-.048.04l-.19-.152-.191.151c-.025.02-.058-.007-.049-.039l.071-.247-.188-.154c-.025-.02-.012-.063.018-.063l.234-.002.074-.246c.01-.032.05-.032.06 0zm.902-4.515l.074.246.235.002c.03 0 .043.043.018.063l-.188.154.07.247c.01.032-.023.059-.048.039l-.19-.15-.191.15c-.025.02-.058-.007-.048-.039l.07-.247-.188-.154c-.025-.02-.012-.063.018-.063l.234-.002.075-.246c.01-.032.05-.032.06 0zm0 1.286l.074.246.235.002c.03 0 .043.043.018.063l-.188.154.07.247c.01.032-.023.059-.048.04l-.19-.151-.191.15c-.025.02-.058-.007-.048-.039l.07-.247-.188-.154c-.025-.02-.012-.063.018-.063l.234-.002.075-.246c.01-.032.05-.032.06 0zm0 1.287l.074.245.235.002c.03 0 .043.043.018.063l-.188.154.07.247c.01.032-.023.059-.048.04l-.19-.151-.191.15c-.025.02-.058-.007-.048-.039l.07-.247-.188-.154c-.025-.02-.012-.062.018-.063l.234-.002.075-.245c.01-.032.05-.032.06 0zm0 1.286l.074.246.235.002c.03 0 .043.043.018.063l-.188.154.07.247c.01.032-.023.058-.048.039l-.19-.151-.191.15c-.025.02-.058-.006-.048-.038l.07-.247-.188-.154c-.025-.02-.012-.063.018-.063l.234-.002.075-.246c.01-.032.05-.032.06 0zm.903-4.489l.074.245.234.002c.03 0 .043.043.018.063l-.188.154.07.247c.01.032-.023.059-.048.04l-.19-.151-.191.15c-.025.02-.058-.007-.048-.039l.07-.247-.188-.154c-.025-.02-.012-.062.018-.063l.235-.002.074-.245c.01-.032.05-.032.06 0zm0 1.285l.074.247.234.002c.03 0 .043.043.018.063l-.188.154.07.247c.01.032-.023.058-.048.039l-.19-.151-.191.15c-.025.02-.058-.006-.048-.038l.07-.247-.188-.154c-.025-.02-.012-.063.018-.063l.235-.002.074-.246c.01-.032.05-.032.06 0zm0 1.287l.074.246.234.002c.03 0 .043.043.018.063l-.188.154.07.247c.01.032-.023.058-.048.039l-.19-.15-.191.15c-.025.02-.058-.007-.048-.04l.07-.246-.188-.154c-.025-.02-.012-.063.018-.063l.235-.002.074-.246c.01-.032.05-.032.06 0zm0 1.286l.074.246.234.002c.03 0 .043.043.018.063l-.188.154.07.247c.01.032-.023.059-.048.039l-.19-.15-.191.15c-.025.02-.058-.007-.048-.039l.07-.247-.188-.154c-.025-.02-.012-.063.018-.063l.235-.002.074-.246c.01-.032.05-.032.06 0zm0 1.287l.074.245.234.002c.03 0 .043.043.018.063l-.188.154.07.247c.01.032-.023.059-.048.04l-.19-.152-.191.151c-.025.02-.058-.007-.048-.039l.07-.247-.188-.154c-.025-.02-.012-.063.018-.063l.235-.002.074-.246c.01-.032.05-.032.06 0zm.902-4.515l.074.246.234.002c.03 0 .043.043.018.063l-.188.154.07.247c.01.032-.023.059-.048.039l-.19-.15-.19.15c-.025.02-.058-.007-.05-.039l.071-.247-.188-.154c-.024-.02-.012-.063.019-.063l.234-.002.074-.246c.01-.032.05-.032.06 0zm0 1.286l.074.246.234.002c.03 0 .043.043.018.063l-.188.154.07.247c.01.032-.023.059-.048.04l-.19-.151-.19.15c-.025.02-.058-.007-.05-.039l.071-.247-.188-.154c-.024-.02-.012-.063.019-.063l.234-.002.074-.246c.01-.032.05-.032.06 0zm0 1.287l.074.245.234.002c.03 0 .043.043.018.063l-.188.154.07.247c.01.032-.023.059-.048.04l-.19-.151-.19.15c-.025.02-.058-.007-.05-.039l.071-.247-.188-.154c-.024-.02-.012-.062.019-.063l.234-.002.074-.245c.01-.032.05-.032.06 0zm0 1.286l.074.246.234.002c.03 0 .043.043.018.063l-.188.154.07.247c.01.032-.023.058-.048.039l-.19-.151-.19.15c-.025.02-.058-.006-.05-.038l.071-.247-.188-.154c-.024-.02-.012-.063.019-.063l.234-.002.074-.246c.01-.032.05-.032.06 0zm.902-4.489l.074.245.234.002c.03 0 .043.043.019.063l-.189.154.07.247c.01.032-.023.059-.048.04l-.19-.151-.19.15c-.025.02-.058-.007-.05-.039l.072-.247-.189-.154c-.024-.02-.012-.062.019-.063l.234-.002.074-.245c.01-.032.05-.032.06 0zm0 1.285l.074.247.234.002c.03 0 .043.043.019.063l-.189.154.07.247c.01.032-.023.058-.048.039l-.19-.151-.19.15c-.025.02-.058-.006-.05-.038l.072-.247-.189-.154c-.024-.02-.012-.063.019-.063l.234-.002.074-.246c.01-.032.05-.032.06 0zm0 1.287l.074.246.234.002c.03 0 .043.043.019.063l-.189.154.07.247c.01.032-.023.058-.048.039l-.19-.15-.19.15c-.025.02-.058-.007-.05-.04l.072-.246-.189-.154c-.024-.02-.012-.063.019-.063l.234-.002.074-.246c.01-.032.05-.032.06 0zm0 1.286l.074.246.234.002c.03 0 .043.043.019.063l-.189.154.07.247c.01.032-.023.059-.048.039l-.19-.15-.19.15c-.025.02-.058-.007-.05-.039l.072-.247-.189-.154c-.024-.02-.012-.063.019-.063l.234-.002.074-.246c.01-.032.05-.032.06 0zm0 1.287l.074.245.234.002c.03 0 .043.043.019.063l-.189.154.07.247c.01.032-.023.059-.048.04l-.19-.152-.19.151c-.025.02-.058-.007-.05-.039l.072-.247-.189-.154c-.024-.02-.012-.063.019-.063l.234-.002.074-.246c.01-.032.05-.032.06 0zm.902-4.515l.074.246.234.002c.03 0 .043.043.019.063l-.189.154.07.247c.01.032-.023.059-.048.039l-.19-.15-.19.15c-.025.02-.058-.007-.049-.039l.07-.247-.188-.154c-.024-.02-.012-.063.019-.063l.234-.002.074-.246c.01-.032.05-.032.06 0zm0 1.286l.074.246.234.002c.03 0 .043.043.019.063l-.189.154.07.247c.01.032-.023.059-.048.04l-.19-.151-.19.15c-.025.02-.058-.007-.049-.039l.07-.247-.188-.154c-.024-.02-.012-.063.019-.063l.234-.002.074-.246c.01-.032.05-.032.06 0zm0 1.287l.074.245.234.002c.03 0 .043.043.019.063l-.189.154.07.247c.01.032-.023.059-.048.04l-.19-.151-.19.15c-.025.02-.058-.007-.049-.039l.07-.247-.188-.154c-.024-.02-.012-.062.019-.063l.234-.002.074-.245c.01-.032.05-.032.06 0zm0 1.286l.074.246.234.002c.03 0 .043.043.019.063l-.189.154.07.247c.01.032-.023.058-.048.039l-.19-.151-.19.15c-.025.02-.058-.006-.049-.038l.07-.247-.188-.154c-.024-.02-.012-.063.019-.063L7.59 5.8l.074-.246c.01-.032.05-.032.06 0zm.902-4.489l.074.245.234.002c.03 0 .043.043.019.063l-.189.154.071.247c.01.032-.024.059-.048.04l-.19-.151-.191.15c-.025.02-.058-.007-.049-.039l.07-.247-.188-.154c-.024-.02-.011-.062.019-.063l.234-.002.074-.245c.01-.032.05-.032.06 0zm0 1.285l.074.247.234.002c.03 0 .043.043.019.063l-.189.154.071.247c.01.032-.024.058-.048.039l-.19-.151-.191.15c-.025.02-.058-.006-.049-.038l.07-.247-.188-.154c-.024-.02-.011-.063.019-.063l.234-.002.074-.246c.01-.032.05-.032.06 0zm0 1.287l.074.246.234.002c.03 0 .043.043.019.063l-.189.154.071.247c.01.032-.024.058-.048.039l-.19-.15-.191.15c-.025.02-.058-.007-.049-.04l.07-.246-.188-.154c-.024-.02-.011-.063.019-.063l.234-.002.074-.246c.01-.032.05-.032.06 0zm0 1.286l.074.246.234.002c.03 0 .043.043.019.063l-.189.154.071.247c.01.032-.024.059-.048.039l-.19-.15-.191.15c-.025.02-.058-.007-.049-.039l.07-.247-.188-.154c-.024-.02-.011-.063.019-.063l.234-.002.074-.246c.01-.032.05-.032.06 0zm0 1.287l.074.245.234.002c.03 0 .043.043.019.063l-.189.154.071.247c.01.032-.024.059-.048.04l-.19-.152-.191.151c-.025.02-.058-.007-.049-.039l.07-.247-.188-.154c-.024-.02-.011-.063.019-.063l.234-.002.074-.246c.01-.032.05-.032.06 0z" fill="#F5F5F5"/></g></svg>