<svg width="50" height="50" xmlns="http://www.w3.org/2000/svg"><g fill="none" fill-rule="evenodd"><circle fill="#9741E0" cx="25" cy="25" r="25"/><path d="M35.775 26.894c.716-6.022-.344-9.823-2.256-11.543h.001c-3.086-2.937-13.508-3.372-17.2.131-1.658 1.714-2.242 4.228-2.306 7.342-.064 3.114-.14 8.948 5.301 10.53h.005l-.005 2.417s-.037.98.59 1.176c.715.232 1.04-.223 3.266-2.88 3.724.322 6.584-.417 6.91-.525.751-.252 5.006-.814 5.694-6.648zm-12.237 5.472s-2.357 2.937-3.09 3.699c-.24.248-.503.225-.499-.267 0-.323.018-4.012.018-4.012-4.613-1.321-4.34-6.289-4.29-8.888.05-2.6.525-4.728 1.93-6.162 3.238-3.034 12.375-2.356 14.703-.17 2.846 2.52 1.833 9.643 1.84 9.885-.586 4.87-4.034 5.179-4.668 5.39-.27.09-2.786.736-5.944.525z" fill="#FFF" fill-rule="nonzero"/><path d="M25.273 18c-.364 0-.364.615 0 .62 2.823.024 5.149 2.158 5.174 6.073 0 .413.558.408.553-.005h-.001c-.03-4.219-2.57-6.664-5.726-6.688z" fill="#FFF" fill-rule="nonzero"/><path d="M28.453 23.668c-.008.43.541.45.546.015.046-2.45-1.259-4.47-3.71-4.682-.36-.03-.397.623-.038.653 2.125.187 3.245 1.868 3.202 4.014zm.309 2.077c-.465-.284-.94-.107-1.136.173l-.41.56c-.209.284-.598.247-.598.247-2.842-.794-3.602-3.932-3.602-3.932s-.035-.425.225-.653l.513-.447c.257-.215.419-.733.157-1.241-.697-1.33-1.166-1.79-1.405-2.142-.25-.331-.628-.406-1.02-.182h-.009c-.815.504-1.708 1.446-1.423 2.416.488 1.023 1.384 4.284 4.24 6.748 1.341 1.165 3.465 2.359 4.367 2.635l.008.014c.888.312 1.752-.667 2.213-1.554v-.007c.205-.429.137-.835-.162-1.1-.53-.545-1.33-1.148-1.958-1.535z" fill="#FFF" fill-rule="nonzero"/><path d="M26.235 20.732c.823.067 1.221.674 1.264 1.92.015.486.516.452.5-.034-.054-1.627-.655-2.533-1.736-2.617-.33-.028-.36.703-.028.73z" fill="#FFF" fill-rule="nonzero"/></g></svg>