<svg width="50" height="50" xmlns="http://www.w3.org/2000/svg"><defs><linearGradient x1="82.31%" y1="11.524%" x2="17.137%" y2="87.188%" id="a"><stop stop-color="#4F51F8" offset="0%"/><stop stop-color="#4481F8" offset="100%"/></linearGradient></defs><g fill="none" fill-rule="evenodd"><circle fill="url(#a)" cx="25" cy="25" r="25"/><path d="M31.75 16h-13.5C17.01 16 16 17.01 16 18.25v15.188a.562.562 0 00.894.453l4.464-3.266H31.75c1.24 0 2.25-1.01 2.25-2.25V18.25c0-1.24-1.01-2.25-2.25-2.25zM20.5 25a1.5 1.5 0 11.001-3.001A1.5 1.5 0 0120.5 25zm5 0a1.5 1.5 0 11.001-3.001A1.5 1.5 0 0125.5 25zm4 0a1.5 1.5 0 11.001-3.001A1.5 1.5 0 0129.5 25z" fill="#FFF" fill-rule="nonzero"/></g></svg>